<svg xmlns:rdf="http://www.w3.org/1999/02/22-rdf-syntax-ns#" xmlns="http://www.w3.org/2000/svg" height="100" width="100" version="1.0" xmlns:cc="http://creativecommons.org/ns#" xmlns:xlink="http://www.w3.org/1999/xlink" xmlns:dc="http://purl.org/dc/elements/1.1/">
 <defs>
  <linearGradient id="i" y2="12.089" gradientUnits="userSpaceOnUse" x2="46.037" y1="24.17" x1="24.616">
   <stop stop-color="#ace5bf" offset="0"/>
   <stop stop-color="#ffa000" offset="1"/>
  </linearGradient>
  <linearGradient id="h" y2="13.277" gradientUnits="userSpaceOnUse" x2="82.979" y1="10.471" x1="55.304">
   <stop stop-color="#ffa000" offset="0"/>
   <stop stop-color="#6bd08d" offset="1"/>
  </linearGradient>
  <linearGradient id="g" y2="27.388" gradientUnits="userSpaceOnUse" x2="56.507" y1="14.057" x1="51.779">
   <stop stop-color="#ffa000" offset="0"/>
   <stop stop-color="#97deaf" offset="1"/>
  </linearGradient>
  <linearGradient id="f" y2="17.14" gradientUnits="userSpaceOnUse" x2="87.549" y1="51.042" x1="81.901">
   <stop stop-color="#ffa000" offset="0"/>
   <stop stop-color="#6bd08d" offset="1"/>
  </linearGradient>
  <linearGradient id="e" y2="51.607" gradientUnits="userSpaceOnUse" x2="76.287" y1="37.166" x1="62.508">
   <stop stop-color="#97deaf" offset="0"/>
   <stop stop-color="#ffa000" offset="1"/>
  </linearGradient>
  <linearGradient id="d" y2="60.848" gradientUnits="userSpaceOnUse" x2="77.035" y1="82.587" x1="56.924">
   <stop stop-color="#7fd79c" offset="0"/>
   <stop stop-color="#ffa000" offset="1"/>
  </linearGradient>
  <linearGradient id="c" y2="85.09" gradientUnits="userSpaceOnUse" x2="49.435" y1="81.119" x1="18.29">
   <stop stop-color="#ffa000" offset="0"/>
   <stop stop-color="#7fd79c" offset="1"/>
  </linearGradient>
  <linearGradient id="b" y2="61.746" gradientUnits="userSpaceOnUse" x2="17.756" y1="73.106" x1="12.958">
   <stop stop-color="#ffa000" offset="0"/>
   <stop stop-color="#50c878" offset="1"/>
  </linearGradient>
  <linearGradient id="a" y2="50.958" gradientUnits="userSpaceOnUse" x2="20" gradientTransform="matrix(1 0 0 1.0029 0 -.073576)" y1="32.65" x1="20">
   <stop stop-color="#ace5bf" offset="0"/>
   <stop stop-color="#50c878" offset="1"/>
  </linearGradient>
 </defs>
 <g display="none">
  <g fill-rule="evenodd">
   <path style="color:#000000;text-indent:0;block-progression:tb;text-decoration-line:none;text-transform:none" d="m49.781 8.5a1.5002 1.5002 0 0 0 -0.5 0.1875l-30 16.812a1.5002 1.5002 0 1 0 1.4375 2.5938l30-16.781a1.5002 1.5002 0 0 0 -0.937 -2.813z" display="inline" fill="url(#i)"/>
   <path style="color:#000000;text-indent:0;block-progression:tb;text-decoration-line:none;text-transform:none" d="m19.812 25.156a1.5002 1.5045 0 0 0 -1.312 1.505v25.23c0.48418-0.13624 0.96127-0.21938 1.4688-0.21939 0.52089 0.000005 1.0313 0.10165 1.5312 0.25073v-25.261a1.5002 1.5045 0 0 0 -1.6875 -1.5044z" display="inline" fill="url(#a)"/>
   <path style="color:#000000;text-indent:0;block-progression:tb;text-decoration-line:none;text-transform:none" d="m49.844 8.5a1.5002 1.5002 0 0 0 0 3l37.344 3.844a1.5002 1.5002 0 1 0 0.312 -2.969l-37.344-3.875a1.5002 1.5002 0 0 0 -0.3125 0z" display="inline" fill="url(#h)"/>
   <path style="color:#000000;text-indent:0;block-progression:tb;text-decoration-line:none;text-transform:none" d="m58.125 31.281a1.5002 1.5002 0 0 0 -0.9375 2.5625l19.156 20.062c0.40488-0.57792 0.92683-1.0516 1.5938-1.4062 0.29208-0.15411 0.57425-0.27899 0.875-0.375l-19.469-20.375a1.5002 1.5002 0 0 0 -1.219 -0.469z" display="inline" fill="url(#e)"/>
   <path style="color:#000000;text-indent:0;block-progression:tb;text-decoration-line:none;text-transform:none" d="m76.656 59.188-23.625 25.375a1.5033 1.5033 0 1 0 2.1875 2.0625l24.094-25.907c-0.428-0.106-0.838-0.265-1.25-0.469-0.558-0.281-1.027-0.646-1.406-1.062z" display="inline" fill="url(#d)"/>
   <path style="color:#000000;text-indent:0;block-progression:tb;text-decoration-line:none;text-transform:none" d="m9.875 78.5a1.5003 1.5003 0 1 0 -0.0625 3l44.125 5.5938a1.5002 1.5002 0 1 0 0.374 -2.969l-44.124-5.625a1.5002 1.5002 0 0 0 -0.3125 0z" display="inline" fill="url(#c)"/>
   <path style="color:#000000;text-indent:0;block-progression:tb;text-decoration-line:none;text-transform:none" d="m16.875 60.156-8.25 19.25a1.5002 1.5002 0 1 0 2.75 1.1875l8.375-19.532c-0.82806-0.03548-1.6109-0.24237-2.375-0.625-0.17421-0.08859-0.34403-0.18047-0.5-0.28125z" display="inline" fill="url(#b)"/>
   <path style="color:#000000;text-indent:0;block-progression:tb;text-decoration-line:none;text-transform:none" d="m50.031 8.4688a1.5002 1.5002 0 0 0 -1.4375 2.0625l8.937 23.219a1.5088 1.5088 0 1 0 2.8125 -1.0938l-8.9375-23.188a1.5002 1.5002 0 0 0 -1.375 -1z" display="inline" fill="url(#g)"/>
   <path style="color:#000000;text-indent:0;block-progression:tb;text-decoration-line:none;text-transform:none" d="m87.844 13a1.5002 1.5002 0 0 0 -1.25 1.2812l-6.532 37.594c0.1536-0.0129 0.3128-0.03125 0.46875-0.03125 0.8554 0.000009 1.6783 0.21156 2.4688 0.625l6.5312-37.688a1.5002 1.5002 0 0 0 -1.531 -1.781 1.5002 1.5002 0 0 0 -0.156 0z" display="inline" fill="url(#f)"/>
  </g>
  <g>
   <path d="m19.6 22.034c-0.91203 0.000009-1.7851 0.21009-2.625 0.65625-0.83329 0.44618-1.4601 1.063-1.9062 1.8438-0.44617 0.77424-0.6875 1.568-0.6875 2.375-0.000001 0.79393 0.21664 1.5529 0.65625 2.2812 0.43961 0.72831 1.0976 1.2923 1.9375 1.7188 0.83985 0.41993 1.7064 0.65625 2.625 0.65625 0.92514 0 1.8098-0.22976 2.6562-0.65625 0.85296-0.43305 1.511-0.997 1.9375-1.7188 0.43304-0.72831 0.62499-1.4758 0.625-2.25-0.000011-0.8136-0.19196-1.6073-0.625-2.375-0.43306-0.77423-1.0845-1.391-1.9375-1.8438-0.846-0.458-1.737-0.687-2.656-0.687z" display="inline" stroke="#ace5bf" stroke-width="1px" fill="#ace5bf"/>
   <path d="m58.4 28.168c-0.91203 0.000009-1.7851 0.21009-2.625 0.65625-0.83329 0.44618-1.4601 1.063-1.9062 1.8438-0.44617 0.77424-0.6875 1.568-0.6875 2.375-0.000001 0.79393 0.21664 1.5529 0.65625 2.2812 0.43961 0.72831 1.0976 1.2923 1.9375 1.7188 0.83985 0.41993 1.7064 0.65625 2.625 0.65625 0.92514 0 1.8098-0.22976 2.6562-0.65625 0.85296-0.43305 1.511-0.997 1.9375-1.7188 0.43304-0.72831 0.62499-1.4758 0.625-2.25-0.000011-0.8136-0.19196-1.6073-0.625-2.375-0.43306-0.77423-1.0845-1.391-1.9375-1.8438-0.84642-0.45928-1.7377-0.68749-2.6562-0.6875z" display="inline" stroke="#97deaf" stroke-width="1px" fill="#97deaf"/>
   <path d="m87.467 10.164c-0.5837 0.000005-1.1425 0.13383-1.68 0.41804-0.53331 0.28422-0.93445 0.67711-1.22 1.1745-0.28555 0.4932-0.44 0.9988-0.44 1.5129-0.000001 0.50574 0.13865 0.98924 0.42 1.4532 0.28135 0.46394 0.7025 0.82318 1.24 1.0949 0.5375 0.2675 1.0921 0.41804 1.68 0.41804 0.59209 0 1.1583-0.14636 1.7-0.41804 0.5459-0.27585 0.96704-0.6351 1.24-1.0949 0.27714-0.46394 0.39999-0.94007 0.4-1.4333-0.000007-0.51827-0.12286-1.0239-0.4-1.5129-0.27716-0.49319-0.6941-0.88608-1.24-1.1745-0.54171-0.29257-1.1121-0.43794-1.7-0.43794z" display="inline" stroke="#6bd08d" stroke-width="1px" fill="#6bd08d"/>
   <g stroke-width="1px">
    <path d="m53.867 82.441c-0.63242 0.000006-1.2378 0.14514-1.8202 0.45338-0.57782 0.30825-1.0124 0.73436-1.3218 1.2738-0.30938 0.5349-0.47672 1.0832-0.47672 1.6408-0.000001 0.5485 0.15022 1.0729 0.45505 1.576 0.30483 0.50316 0.76112 0.89278 1.3435 1.1874 0.58236 0.29011 1.1832 0.45338 1.8202 0.45338 0.64151 0 1.255-0.15873 1.8419-0.45338 0.59146-0.29918 1.0477-0.68879 1.3435-1.1874 0.30027-0.50316 0.43338-1.0196 0.43338-1.5544-0.000008-0.56209-0.13311-1.1104-0.43338-1.6408-0.30029-0.53489-0.75203-0.961-1.3435-1.2738-0.58692-0.3173-1.2049-0.47496-1.8419-0.47497z" display="inline" stroke="#7fd79c" fill="#7fd79c"/>
    <path d="m10 73.403c-1.2849 0.000012-2.5149 0.29668-3.6981 0.92674-1.1739 0.63009-2.0569 1.5011-2.6855 2.6037-0.62856 1.0934-0.96854 2.2142-0.96854 3.3539-0.000001 1.1212 0.3052 2.193 0.92451 3.2215s1.5463 1.8249 2.7295 2.4272c1.1832 0.594 2.404 0.927 3.6981 0.927 1.3033 0 2.5497-0.32446 3.7421-0.92674 1.2016-0.61154 2.1287-1.4079 2.7295-2.4272 0.61006-1.0285 0.88047-2.084 0.88049-3.1774-0.000015-1.149-0.27043-2.2698-0.88049-3.3539-0.61-1.093-1.528-1.964-2.73-2.604-1.192-0.648-2.448-0.971-3.742-0.971z" display="inline" stroke="#ffa000" fill="#ffa000"/>
    <path d="m50.133 5.4271c-0.74892 0.0000074-1.4659 0.1722-2.1555 0.53791-0.68426 0.36572-1.199 0.87128-1.5653 1.5113-0.36638 0.63463-0.56455 1.2852-0.56455 1.9467-0.000001 0.65076 0.17789 1.2729 0.53888 1.8699 0.36099 0.59698 0.90134 1.0592 1.591 1.4088 0.68965 0.3442 1.4012 0.53791 2.1555 0.53791 0.75969 0 1.4862-0.18833 2.1812-0.53791 0.70042-0.35496 1.2408-0.81721 1.591-1.4088 0.35559-0.59697 0.51321-1.2096 0.51322-1.8443 0.001-0.6669-0.157-1.3175-0.512-1.9467-0.356-0.6346-0.891-1.1402-1.591-1.5113-0.696-0.3764-1.427-0.5635-2.182-0.5635z" display="inline" stroke="#ffa000" fill="#ffa000"/>
   </g>
  </g>
  <path d="m6.7038 56.7v2.0805h2.0411c0.48644 0.000002 0.83155 0.09532 1.0353 0.28595 0.21035 0.18406 0.31552 0.42728 0.31553 0.72967-0.00001 0.29581-0.10519 0.53904-0.31553 0.72967-0.20379 0.18406-0.5489 0.27609-1.0353 0.27609h-4.378c-0.48645 0-0.83485-0.09203-1.0452-0.27609-0.20378-0.19063-0.30567-0.43714-0.30567-0.73953 0-0.29581 0.10518-0.53575 0.31553-0.71981 0.21036-0.19063 0.55547-0.28595 1.0353-0.28595h0.31553v-7.908h-0.31553c-0.48645 0.00001-0.83485-0.09202-1.0452-0.27609-0.20378-0.19062-0.30567-0.43713-0.30567-0.73953 0-0.30237 0.10189-0.5456 0.30567-0.72967 0.21035-0.19062 0.55876-0.28594 1.0452-0.28595l4.6541 0.0099c1.3673 0.000012 2.4487 0.37471 3.2441 1.1241 0.80196 0.74283 1.203 1.65 1.203 2.7215-0.000015 0.59163-0.13477 1.1504-0.40428 1.6763-0.20379 0.39442-0.54562 0.78555-1.0255 1.1734-0.47331 0.38127-0.95976 0.67051-1.4593 0.86771-0.49303 0.19064-1.1471 0.28596-1.9622 0.28595h-1.9129m0-2.0214h1.8735c0.88085 0.000006 1.5777-0.1972 2.0904-0.59162 0.51931-0.40098 0.77896-0.88085 0.77897-1.4396-0.00001-0.47329-0.21036-0.88743-0.63106-1.2424-0.415-0.355-1.0095-0.533-1.7852-0.533h-2.3271v3.8061" display="inline"/>
  <path d="m25.231 56.493c-0.000011 0.77569-0.21694 1.5284-0.65078 2.258-0.4273 0.7231-1.0682 1.3016-1.9228 1.7354-0.848 0.42728-1.7354 0.64092-2.6623 0.64092-0.9203 0-1.8012-0.21036-2.6426-0.63106-0.84142-0.42728-1.4823-1.0058-1.9228-1.7354-0.44043-0.72967-0.66065-1.4922-0.66065-2.2876 0-0.80855 0.2235-1.6007 0.67051-2.3764 0.447-0.78225 1.0879-1.3969 1.9228-1.8439 0.84142-0.447 1.719-0.6705 2.6327-0.67051 0.9203 0.000009 1.8044 0.23008 2.6524 0.69023 0.85456 0.45359 1.4988 1.0682 1.9326 1.8439 0.43384 0.76912 0.65077 1.5612 0.65078 2.3764m-2.0214 0.0099c-0.00001-0.65078-0.23337-1.249-0.70009-1.7946-0.63764-0.73624-1.4758-1.1044-2.5144-1.1044-0.91373 0.000007-1.6763 0.29253-2.2876 0.87758-0.61135 0.58506-0.91702 1.2621-0.91701 2.0312-0.000005 0.63107 0.30895 1.2227 0.92688 1.7749 0.61791 0.54561 1.3772 0.81841 2.2777 0.81841 0.90715 0.000002 1.6697-0.2728 2.2876-0.81841 0.61791-0.55218 0.92687-1.1471 0.92688-1.7847" display="inline" fill="#50c878"/>
  <g>
   <path d="m33.1 48.013v10.768h2.4257c0.48644 0.000002 0.83155 0.09532 1.0353 0.28595 0.21035 0.18406 0.31552 0.42728 0.31553 0.72967-0.000011 0.29581-0.10519 0.53904-0.31553 0.72967-0.20379 0.18406-0.5489 0.27609-1.0353 0.27609h-6.8727c-0.48645 0-0.83485-0.09203-1.0452-0.27609-0.20378-0.19063-0.30567-0.43714-0.30567-0.73953 0-0.29581 0.10189-0.53575 0.30567-0.71981 0.21035-0.19063 0.55876-0.28595 1.0452-0.28595h2.4257v-8.7462h-1.627c-0.47987 0.000011-0.82499-0.09202-1.0353-0.27609-0.21036-0.19062-0.31553-0.43713-0.31553-0.73953 0-0.2958 0.10189-0.53574 0.30567-0.71981 0.21035-0.19062 0.55876-0.28594 1.0452-0.28595h3.6484" display="inline"/>
   <path d="m43.069 60.733-3.5004-6.8628c-0.32868-0.03943-0.57848-0.15119-0.74939-0.33525-0.17091-0.18405-0.25637-0.40756-0.25637-0.67051 0-0.30238 0.10189-0.5456 0.30567-0.72967 0.21035-0.19062 0.55876-0.28594 1.0452-0.28595h1.8439c0.48644 0.000009 0.83156 0.09533 1.0353 0.28595 0.21035 0.18407 0.31553 0.42729 0.31553 0.72967 0 0.29582-0.10518 0.53904-0.31553 0.72967-0.20378 0.18407-0.52918 0.2761-0.97618 0.27609l2.3862 4.6442 2.3665-4.6442c-0.43386 0.000007-0.75597-0.09202-0.96632-0.27609-0.20379-0.19063-0.30568-0.43714-0.30567-0.73953-0.000005-0.2958 0.10188-0.53574 0.30567-0.71981 0.21035-0.19062 0.55875-0.28594 1.0452-0.28595h1.9031c0.47986 0.000009 0.82169 0.09533 1.0255 0.28595 0.21035 0.18407 0.31552 0.42729 0.31553 0.72967-0.000011 0.26953-0.08875 0.4996-0.26623 0.69023-0.1775 0.18407-0.44044 0.28924-0.78883 0.31553l-4.6344 9.1307c0.50616-0.000002 0.83813 0.0493 0.9959 0.14791 0.31553 0.20378 0.47329 0.49302 0.4733 0.86772-0.000005 0.29581-0.10519 0.53574-0.31553 0.71981-0.20379 0.19063-0.5489 0.28595-1.0353 0.28595h-4.4076c-0.48645-0.000004-0.83485-0.09532-1.0452-0.28595-0.20378-0.18406-0.30567-0.424-0.30567-0.71981 0-0.30239 0.10189-0.5489 0.30567-0.73953 0.21035-0.18406 0.55876-0.27609 1.0452-0.27609h2.0115l1.1438-2.2679" display="inline"/>
   <path d="m55.138 56.7v2.0805h2.0411c0.48644 0.000002 0.83155 0.09532 1.0353 0.28595 0.21035 0.18406 0.31552 0.42728 0.31553 0.72967-0.00001 0.29581-0.10519 0.53904-0.31553 0.72967-0.20379 0.18406-0.5489 0.27609-1.0353 0.27609h-4.378c-0.48645 0-0.83485-0.09203-1.0452-0.27609-0.20378-0.19063-0.30567-0.43714-0.30567-0.73953 0-0.29581 0.10518-0.53575 0.31553-0.71981 0.21036-0.19063 0.55547-0.28595 1.0353-0.28595h0.31553v-7.908h-0.31553c-0.48645 0.00001-0.83485-0.09202-1.0452-0.27609-0.20378-0.19062-0.30567-0.43713-0.30567-0.73953 0-0.30237 0.10189-0.5456 0.30567-0.72967 0.21035-0.19062 0.55876-0.28594 1.0452-0.28595l4.6541 0.0099c1.3673 0.000012 2.4487 0.37471 3.2441 1.1241 0.80197 0.74283 1.203 1.65 1.203 2.7215-0.000015 0.59163-0.13477 1.1504-0.40428 1.6763-0.20379 0.39442-0.54562 0.78555-1.0255 1.1734-0.47331 0.38127-0.95976 0.67051-1.4593 0.86771-0.49303 0.19064-1.1471 0.28596-1.9622 0.28595h-1.9129m0-2.0214h1.8735c0.88085 0.000006 1.5777-0.1972 2.0904-0.59162 0.51931-0.40098 0.77896-0.88085 0.77897-1.4396-0.00001-0.47329-0.21036-0.88743-0.63106-1.2424-0.41414-0.35496-1.0091-0.53245-1.7847-0.53246h-2.3271v3.8061" display="inline"/>
   <path d="m67.996 51.849v1.2621c0.84798-0.61134 1.5152-1.0189 2.0017-1.2227 0.49301-0.20377 0.95317-0.30566 1.3805-0.30567 0.65735 0.000009 1.295 0.24323 1.9129 0.72967 0.4207 0.32869 0.63106 0.66394 0.63106 1.0058-0.00001 0.28924-0.1019 0.53576-0.30567 0.73953-0.19722 0.19722-0.43715 0.29582-0.71981 0.29581-0.24981 0.000007-0.51275-0.12489-0.78883-0.3747-0.2761-0.24979-0.52261-0.37469-0.73953-0.3747-0.28268 0.000007-0.70667 0.17749-1.272 0.53246-0.55877 0.35498-1.2589 0.88744-2.1003 1.5974v3.0469h2.8792c0.48644 0.000002 0.83155 0.09532 1.0353 0.28595 0.21034 0.18406 0.31552 0.42728 0.31553 0.72967-0.00001 0.29581-0.10519 0.53904-0.31553 0.72967-0.20379 0.18406-0.5489 0.27609-1.0353 0.27609h-6.1036c-0.48644 0-0.83485-0.09203-1.0452-0.27609-0.20378-0.19063-0.30567-0.43714-0.30567-0.73953 0-0.29581 0.10189-0.53575 0.30567-0.71981 0.21035-0.19063 0.55876-0.28595 1.0452-0.28595h1.203v-4.9105h-0.72967c-0.48645 0.000007-0.83485-0.09202-1.0452-0.27609-0.20378-0.19063-0.30567-0.43714-0.30567-0.73953 0-0.2958 0.10189-0.53574 0.30567-0.71981 0.21035-0.19062 0.55875-0.28594 1.0452-0.28595h2.7511" display="inline"/>
  </g>
  <path d="m85.774 56.493c-0.00001 0.77569-0.21694 1.5284-0.65078 2.258-0.42729 0.7231-1.0682 1.3016-1.9228 1.7354-0.84801 0.42728-1.7354 0.64092-2.6623 0.64092-0.92031 0-1.8012-0.21036-2.6426-0.63106-0.84142-0.42728-1.4823-1.0058-1.9228-1.7354-0.44043-0.72967-0.66064-1.4922-0.66064-2.2876 0-0.80855 0.2235-1.6007 0.6705-2.3764 0.44701-0.78225 1.0879-1.3969 1.9228-1.8439 0.84141-0.447 1.719-0.6705 2.6327-0.67051 0.9203 0.000009 1.8044 0.23008 2.6524 0.69023 0.85456 0.45359 1.4988 1.0682 1.9326 1.8439 0.43384 0.76912 0.65078 1.5612 0.65078 2.3764m-2.0214 0.0099c-0.00001-0.65078-0.23337-1.249-0.70009-1.7946-0.63765-0.73624-1.4758-1.1044-2.5144-1.1044-0.91374 0.000007-1.6763 0.29253-2.2876 0.87758-0.61134 0.58506-0.91702 1.2621-0.91702 2.0312 0 0.63107 0.30896 1.2227 0.92688 1.7749 0.61791 0.54561 1.3772 0.81841 2.2778 0.81841 0.90715 0.000002 1.6697-0.2728 2.2876-0.81841 0.61791-0.55218 0.92687-1.1471 0.92688-1.7847" display="inline" fill="#ffa000"/>
  <path d="m94.856 52.45v-0.60148h2.3665c0.48644 0.000009 0.83155 0.09533 1.0353 0.28595 0.21034 0.18407 0.31552 0.42729 0.31553 0.72967-0.000015 0.29582-0.10519 0.53904-0.31553 0.72967-0.20379 0.18407-0.54891 0.2761-1.0353 0.27609h-0.34511v7.3559c-0.00001 0.70995-0.1512 1.3279-0.45358 1.8538-0.29582 0.53246-0.75268 0.98932-1.3706 1.3706-0.618 0.381-1.315 0.572-2.09 0.572h-2.2876c-0.48644-0.000004-0.83485-0.09532-1.0452-0.28595-0.20378-0.18406-0.30567-0.424-0.30567-0.71981 0-0.30239 0.10189-0.5489 0.30567-0.73953 0.21035-0.18406 0.55876-0.27609 1.0452-0.27609h2.2285c0.61791-0.000002 1.0978-0.16763 1.4396-0.50288 0.34182-0.33526 0.51273-0.75925 0.51274-1.272v-0.98604c-0.44701 0.28924-0.90387 0.50617-1.3706 0.65079-0.46016 0.14462-0.93346 0.21693-1.4199 0.21693-1.3739 0-2.5243-0.45686-3.4511-1.3706-0.92688-0.9203-1.3903-2.0542-1.3903-3.4018 0-1.3542 0.46343-2.4881 1.3903-3.4018 0.92688-0.92029 2.0773-1.3804 3.4511-1.3805 0.51273 0.000009 0.99918 0.07561 1.4593 0.22679 0.46672 0.14463 0.91044 0.36813 1.3311 0.67051m-0.0098 3.8751c-0.000005-0.74281-0.2761-1.387-0.82827-1.9326-0.54561-0.5456-1.203-0.81841-1.9721-0.81841-0.76912 0.000007-1.4298 0.27281-1.9819 0.81841-0.54561 0.54561-0.81842 1.1898-0.81842 1.9326 0 0.74939 0.2728 1.3969 0.81842 1.9425 0.55218 0.53904 1.2128 0.80855 1.9819 0.80855 0.7691 0.000002 1.4265-0.26952 1.9721-0.80855 0.55217-0.54561 0.82827-1.1931 0.82827-1.9425" display="inline"/>
 </g>
 <g>
  <path d="m55 5-2 3 34 4 2-3-34-4zm-9 2-27 13 2 3 27-13-2-3zm7 2-3 2 7 17 3-2-7-17zm35 4-7 37 3 2 7-37-3-2zm-70 14-3 2v23l3-2v-23zm46 4-3 2 16 19 3-2-16-19zm-49 26-6 22 3 2 6-22-3-2zm62 0-19 33 3 2 19-33-3-2zm-60 28-2 3 38 7 2-3-38-7z" fill="#f07800"/>
  <path d="m55 5-2 3 3.0488 0.35938c0.295-0.7528 0.451-1.5421 0.451-2.3711 0-0.2779-0.02-0.5497-0.053-0.8184l-1.447-0.1699zm-9 2-2.1895 1.0547c0.30165 0.94793 0.82136 1.8025 1.5703 2.5586 0.15129 0.15089 0.30614 0.29103 0.46484 0.42383l2.155-1.037-2-3zm40.01 1.6484c-0.336 0.7116-0.51 1.4976-0.51 2.3616 0 0.28225 0.0243 0.55362 0.06055 0.82031l1.439 0.17 1.229-1.844c0.105-0.4449 0.3-0.8381 0.583-1.1775l-2.802-0.3301zm-33.01 0.3516l-3 2 0.60156 1.4609c0.95014-0.08628 1.8355-0.35069 2.6504-0.8125 0.23161-0.133 0.44919-0.28102 0.6582-0.4375l-0.911-2.211zm35 4-0.43945 2.3242c0.91039 0.73545 1.964 1.1219 3.1582 1.166l0.281-1.49-3-2zm-67.533 6.293-1.467 0.707l2 3 1.2969-0.625c-0.144-0.563-0.362-1.105-0.662-1.625-0.318-0.551-0.712-1.033-1.168-1.457zm38.961 5.3184c-0.83569 0.17444-1.6011 0.56243-2.2891 1.1816-0.27502 0.24937-0.51493 0.51419-0.7207 0.79492l0.582 1.412 3-2-0.572-1.389zm-41.428 2.389l-3 2v1.4316c0.305 0.041 0.616 0.068 0.938 0.068 0.726 0 1.41-0.115 2.062-0.32v-3.18zm46 4-3 2 1.0508 1.248c0.32786-0.10442 0.64779-0.23237 0.95117-0.4043 0.77125-0.44289 1.3782-1.0551 1.8223-1.8359 0.0034-0.0059 0.0064-0.01167 0.0098-0.01758l-0.834-0.99zm-46.506 17.5c-0.86 0-1.69 0.2-2.494 0.578v2.922l0.168-0.113c0.2255-0.19243 0.46564-0.35501 0.72266-0.48047l2.109-1.407v-1.465c-0.168-0.015-0.335-0.035-0.506-0.035zm64 0c-0.07174 0-0.14154 0.01103-0.21289 0.01367l-0.281 1.486 2.0547 1.3711c0.30035 0.13827 0.57583 0.3257 0.83203 0.55273l0.113 0.076 0.502-2.65c-0.962-0.565-1.965-0.85-3.008-0.85zm-2.336 0.5c-0.22958 0.10056-0.4585 0.21268-0.68359 0.34375-0.85227 0.50018-1.5178 1.1776-2.0176 2.0117l0.543 0.645 3-2-0.842-1zm-2.158 8-0.51 0.885c0.49015 0.74583 1.1405 1.3591 1.9727 1.8223 0.29467 0.16149 0.59531 0.29021 0.89844 0.40234l0.639-1.11-3-2zm-62.006 0.02148-0.70312 2.5762c0.05879 0.03523 0.11127 0.07564 0.17188 0.10938 0.96513 0.52893 1.9756 0.79297 3.0312 0.79297 0.03289 0 0.06486-0.0053 0.09766-0.0059l0.408-1.493-1.998-1.332c-0.366-0.153-0.701-0.371-1.008-0.647zm-5.0799 20.479c-0.1732 0-0.34224 0.01229-0.51172 0.02344l-0.4024 1.477 3 2 0.80078-2.9355c-0.916-0.376-1.878-0.564-2.8869-0.564zm7.0859 7.5l-2 3 1.7109 0.31445c0.50029-1.012 0.76806-2.0851 0.7832-3.2227l-0.494-0.091zm41.773 3.658-0.773 1.342l3 2 0.90039-1.5645c-0.409-0.437-0.881-0.818-1.429-1.127-0.543-0.309-1.111-0.519-1.698-0.651zm-6.4941 2.8398c-0.519 0.887-0.779 1.89-0.779 3.012 0 0.07288 0.0076 0.14291 0.0098 0.21484l1.49 0.275 2-3-2.721-0.502z" fill-opacity=".23529"/>
  <path d="m49.932 0c-1.494 0-2.815 0.51777-3.965 1.5527-1.311 1.1888-1.967 2.6738-1.967 4.4571 0 1.6643 0.577 3.0802 1.734 4.2482 1.164 1.161 2.567 1.742 4.207 1.742 1.115 0 2.135-0.263 3.061-0.787 0.925-0.532 1.655-1.2662 2.187-2.2032 0.54-0.9371 0.811-1.9426 0.811-3.0196 0-1.0699-0.266-2.0671-0.799-2.9902s-1.277-1.6529-2.23-2.1914c-0.947-0.53847-1.96-0.8086-3.039-0.8086zm0.043 2.6953c0.911 0 1.656 0.3085 2.238 0.9238 0.589 0.6084 0.885 1.4019 0.885 2.3809s-0.299 1.78-0.895 2.4023c-0.596 0.6224-1.343 0.9336-2.24 0.9336-0.898 0-1.64-0.3084-2.229-0.9238-0.582-0.6154-0.873-1.4191-0.873-2.4121 0-0.965 0.294-1.7557 0.883-2.3711 0.596-0.6224 1.34-0.9336 2.231-0.9336zm40.968 3.3047c-1.244 0-2.346 0.4305-3.304 1.293-1.093 0.9906-1.639 2.2288-1.639 3.715 0 1.387 0.481 2.568 1.445 3.541 0.97 0.967 2.139 1.451 3.506 1.451 0.929 0 1.78-0.219 2.551-0.656 0.771-0.443 1.378-1.055 1.822-1.836 0.45-0.781 0.676-1.618 0.676-2.516 0-0.891-0.222-1.7228-0.666-2.492s-1.063-1.3775-1.857-1.8262c-0.789-0.4487-1.634-0.6738-2.534-0.6738zm0.036 2.2461c0.759 0 1.382 0.2567 1.867 0.7695 0.49 0.507 0.736 1.1684 0.736 1.9844s-0.249 1.483-0.746 2.002-1.119 0.777-1.867 0.777-1.367-0.256-1.858-0.769c-0.485-0.513-0.726-1.182-0.726-2.01 0-0.804 0.243-1.4618 0.734-1.9746 0.497-0.5187 1.117-0.7793 1.86-0.7793zm-75.047 9.7539c-1.494 0-2.815 0.518-3.965 1.553-1.311 1.189-1.967 2.674-1.967 4.457 0 1.664 0.577 3.08 1.734 4.248 1.164 1.161 2.567 1.742 4.207 1.742 1.115 0 2.135-0.263 3.061-0.787 0.925-0.532 1.655-1.266 2.187-2.203 0.54-0.937 0.811-1.943 0.811-3.02 0-1.07-0.266-2.067-0.799-2.99s-1.277-1.653-2.23-2.191c-0.947-0.539-1.96-0.809-3.039-0.809zm0.043 2.695c0.911 0 1.656 0.309 2.238 0.924 0.589 0.609 0.885 1.402 0.885 2.381s-0.299 1.78-0.895 2.402c-0.596 0.623-1.343 0.934-2.24 0.934-0.898 0-1.64-0.309-2.229-0.924-0.582-0.615-0.873-1.419-0.873-2.412 0-0.965 0.294-1.756 0.883-2.371 0.596-0.622 1.34-0.934 2.231-0.934zm44.474 4.305c-1.12 0-2.112 0.388-2.974 1.164-0.984 0.892-1.475 2.006-1.475 3.344 0 1.248 0.433 2.309 1.301 3.185 0.873 0.871 1.926 1.307 3.156 1.307 0.836 0 1.601-0.196 2.295-0.59 0.694-0.398 1.241-0.949 1.641-1.652 0.404-0.703 0.607-1.458 0.607-2.266 0-0.802-0.2-1.55-0.6-2.242-0.399-0.692-0.956-1.241-1.671-1.645-0.71-0.403-1.47-0.605-2.28-0.605zm0.031 2.021c0.684 0 1.244 0.232 1.68 0.694 0.442 0.456 0.662 1.051 0.662 1.785s-0.223 1.334-0.67 1.801-1.006 0.701-1.679 0.701-1.231-0.232-1.672-0.693c-0.437-0.462-0.656-1.064-0.656-1.809 0-0.724 0.222-1.316 0.664-1.777 0.447-0.467 1.004-0.702 1.671-0.702zm-42.986 21.979c-0.961 0-1.883 0.258-2.767 0.773-0.878 0.516-1.552 1.224-2.022 2.125-0.47 0.894-0.705 1.807-0.705 2.739 0 0.916 0.232 1.796 0.695 2.636 0.463 0.841 1.137 1.508 2.022 2 0.884 0.485 1.81 0.727 2.777 0.727 0.975 0 1.909-0.246 2.801-0.738 0.898-0.5 1.572-1.167 2.021-2 0.457-0.841 0.684-1.71 0.684-2.604 0-0.939-0.227-1.852-0.684-2.738-0.456-0.894-1.134-1.602-2.033-2.125-0.891-0.53-1.821-0.795-2.789-0.795zm64 0c-0.961 0-1.883 0.258-2.767 0.773-0.878 0.516-1.552 1.224-2.022 2.125-0.47 0.894-0.705 1.807-0.705 2.739 0 0.916 0.232 1.796 0.695 2.636 0.463 0.841 1.137 1.508 2.022 2 0.884 0.485 1.81 0.727 2.777 0.727 0.975 0 1.909-0.246 2.801-0.738 0.898-0.5 1.572-1.167 2.021-2 0.457-0.841 0.684-1.71 0.684-2.604 0-0.939-0.227-1.852-0.684-2.738-0.456-0.894-1.134-1.602-2.033-2.125-0.891-0.53-1.821-0.795-2.789-0.795zm-64 2.33c1.092 0 1.974 0.423 2.645 1.272 0.49 0.628 0.736 1.318 0.736 2.068 0 0.735-0.325 1.42-0.975 2.057-0.649 0.628-1.452 0.943-2.406 0.943-0.947 0-1.745-0.315-2.394-0.943-0.65-0.637-0.975-1.318-0.975-2.045 0-0.887 0.322-1.666 0.965-2.34s1.443-1.012 2.404-1.012zm64 0c1.092 0 1.974 0.423 2.645 1.272 0.49 0.628 0.736 1.318 0.736 2.068 0 0.735-0.325 1.42-0.975 2.057-0.649 0.628-1.452 0.943-2.406 0.943-0.947 0-1.745-0.315-2.394-0.943-0.65-0.637-0.975-1.318-0.975-2.045 0-0.887 0.322-1.666 0.965-2.34s1.443-1.012 2.404-1.012zm-71.574 26.67c-1.7423 0-3.2835 0.603-4.625 1.811-1.5296 1.386-2.2949 3.12-2.2949 5.201 0 1.941 0.6757 3.594 2.0254 4.957 1.3579 1.354 2.9921 2.031 4.9062 2.031 1.3004 0 2.4924-0.306 3.5724-0.918 1.08-0.62 1.929-1.477 2.551-2.57 0.63-1.094 0.945-2.267 0.945-3.524 0-1.248-0.31-2.411-0.932-3.488-0.621-1.077-1.489-1.93-2.601-2.559-1.104-0.628-2.287-0.941-3.5471-0.941zm0.0489 3.145c1.0632 0 1.9342 0.36 2.6132 1.078 0.687 0.709 1.031 1.635 1.031 2.777s-0.347 2.077-1.043 2.803c-0.695 0.726-1.566 1.09-2.613 1.09s-1.9144-0.361-2.6015-1.079c-0.679-0.717-1.0176-1.655-1.0176-2.814 0-1.126 0.3422-2.048 1.0293-2.766 0.6953-0.726 1.5627-1.089 2.6016-1.089zm47.469 7.855c-1.369 0-2.581 0.475-3.635 1.424-1.202 1.09-1.803 2.451-1.803 4.086 0 1.525 0.529 2.824 1.59 3.894 1.067 1.064 2.353 1.596 3.857 1.596 1.022 0 1.957-0.24 2.805-0.721 0.848-0.487 1.517-1.16 2.006-2.019 0.495-0.859 0.742-1.783 0.742-2.77 0-0.981-0.244-1.894-0.732-2.74-0.489-0.846-1.171-1.516-2.045-2.01-0.868-0.493-1.796-0.74-2.785-0.74zm0.039 2.471c0.835 0 1.519 0.281 2.052 0.845 0.54 0.558 0.811 1.287 0.811 2.184s-0.274 1.631-0.82 2.201c-0.547 0.571-1.231 0.858-2.053 0.858-0.823 0-1.505-0.284-2.045-0.848-0.534-0.564-0.799-1.301-0.799-2.211 0-0.885 0.269-1.61 0.809-2.174 0.546-0.57 1.228-0.855 2.045-0.855z" fill="#f07800"/>
  <g transform="scale(.96915 1.0318)">
   <g fill="#fff">
    <path d="m4.0047 53.828v2.1916h2.2165q0.79237 0 1.1243 0.30121 0.34265 0.29082 0.34265 0.76861 0 0.4674-0.34265 0.76861-0.33194 0.29082-1.1243 0.29082h-4.7542q-0.79237 0-1.135-0.29082-0.3321-0.301-0.3321-0.779 0-0.4674 0.34265-0.75822 0.34265-0.30121 1.1243-0.30121h0.34265v-8.33h-0.34265q-0.79237 0-1.135-0.29082-0.332-0.302-0.332-0.779 0-0.47778 0.33194-0.76861 0.34265-0.30121 1.135-0.30121l5.054 0.01039q2.2272 0 3.5228 1.1841 1.3063 1.1737 1.3063 2.8667 0 0.93479-0.43902 1.7657-0.33194 0.62319-1.1136 1.236-0.77096 0.60242-1.5847 0.91402-0.80308 0.30121-2.1308 0.30121h-2.0773zm0-2.1292h2.0345q1.4348 0 2.27-0.62319 0.84591-0.63358 0.84591-1.5164 0-0.74783-0.68529-1.3087-0.67459-0.56087-1.9381-0.56087h-2.527v4.0092z"/>
    <path d="m31.012 45.55v10.608h2.6141q0.78636 0 1.1158 0.2817 0.34005 0.27199 0.34005 0.71883 0 0.43712-0.34005 0.71883-0.32942 0.27199-1.1158 0.27199h-7.4067q-0.78636 0-1.1264-0.27199-0.32942-0.2817-0.32942-0.72854 0-0.43712 0.32942-0.70911 0.34005-0.2817 1.1264-0.2817h2.6141v-8.6162h-1.7534q-0.77574 0-1.1158-0.27199-0.34005-0.2817-0.34005-0.72854 0-0.43712 0.32942-0.70911 0.34005-0.2817 1.1264-0.2817h3.9318z"/>
    <path d="m41.039 57.619-3.826-7.826q-0.53882-0.06746-0.819-0.38229t-0.28018-0.76458q0-0.51722 0.33407-0.83204 0.34484-0.32607 1.1423-0.32607h2.0152q0.79745 0 1.1315 0.32607 0.34484 0.31483 0.34484 0.83204 0 0.50597-0.34484 0.83204-0.33407 0.31483-1.0669 0.31483l2.6079 5.2958 2.5863-5.2958q-0.71124 0-1.0561-0.31483-0.33407-0.32607-0.33407-0.84329 0-0.50597 0.33407-0.8208 0.34484-0.32607 1.1423-0.32607h2.0798q0.78667 0 1.1207 0.32607 0.34484 0.31483 0.34484 0.83204 0 0.461-0.29096 0.78707-0.29096 0.31483-0.86211 0.3598l-5.0649 10.412q0.82978 0 1.0884 0.16866 0.51726 0.34856 0.51726 0.98946 0 0.50597-0.34484 0.8208-0.33407 0.32607-1.1315 0.32607h-4.817q-0.79745 0-1.1423-0.32607-0.33407-0.31483-0.33407-0.8208 0-0.51722 0.33407-0.84329 0.34484-0.31483 1.1423-0.31483h2.1984l1.2501-2.5861z"/>
    <path d="m57.66 53.828v2.1916h2.2165q0.79237 0 1.1243 0.30121 0.34265 0.29082 0.34265 0.76861 0 0.4674-0.34265 0.76861-0.33194 0.29082-1.1243 0.29082h-4.7542q-0.79237 0-1.135-0.29082-0.33194-0.30121-0.33194-0.77899 0-0.4674 0.34265-0.75822 0.34265-0.30121 1.1243-0.30121h0.34265v-8.33h-0.34265q-0.79237 0-1.135-0.29082-0.33194-0.30121-0.33194-0.77899t0.33194-0.76861q0.34265-0.30121 1.135-0.30121l5.054 0.01039q2.2272 0 3.5228 1.1841 1.3063 1.1737 1.3063 2.8667 0 0.93479-0.43902 1.7657-0.33194 0.62319-1.1136 1.236-0.77096 0.60242-1.5847 0.91402-0.80308 0.30121-2.1308 0.30121h-2.0773zm0-2.1292h2.0345q1.4348 0 2.27-0.62319 0.84591-0.63358 0.84591-1.5164 0-0.74783-0.68529-1.3087-0.67459-0.56087-1.9381-0.56087h-2.527v4.0092z"/>
    <path d="m70.983 47.796v1.4594q1.3748-1.0604 2.1635-1.4138 0.79931-0.35345 1.492-0.35345 1.0657 0 2.0675 0.84373 0.68208 0.57009 0.68208 1.163 0 0.50168-0.33038 0.85513-0.31972 0.34205-0.77799 0.34205-0.40498 0-0.8526-0.43326-0.44761-0.43327-0.79931-0.43327-0.45827 0-1.3748 0.61569-0.90588 0.61569-2.27 1.8471v3.5231h3.112q0.78865 0 1.119 0.33065 0.34104 0.31925 0.34104 0.84373 0 0.51308-0.34104 0.84373-0.33038 0.31925-1.119 0.31925h-6.597q-0.78865 0-1.1297-0.31925-0.33038-0.33065-0.33038-0.85513 0-0.51308 0.33038-0.83232 0.34104-0.33065 1.1297-0.33065h1.3002v-5.6781h-0.78865q-0.78865 0-1.1297-0.31925-0.33038-0.33065-0.33038-0.85513 0-0.51308 0.33038-0.83233 0.34104-0.33065 1.1297-0.33065h2.9734z"/>
   </g>
   <path fill-opacity=".47059" d="m23.732 52.973q0 1.2995-0.70604 2.522-0.69534 1.2114-2.086 1.9383-1.38 0.71585-2.8884 0.71585-1.4977 0-2.867-0.70484-1.3693-0.71585-2.086-1.9383-0.71674-1.2224-0.71674-2.555 0-1.3546 0.72744-2.6541 0.72744-1.3106 2.086-2.0594 1.3693-0.74889 2.8563-0.74889 1.4977 0 2.8777 0.77091 1.3907 0.7599 2.0967 2.0594 0.70604 1.2885 0.70604 2.6541zm-2.193 0.01102q0-1.0903-0.75953-2.0044-1.0377-1.2335-2.7279-1.2335-1.487 0-2.4819 0.98016-0.99488 0.98016-0.99488 2.2687 0 1.0572 1.0056 1.9823 1.0056 0.91408 2.4712 0.91408 1.4763 0 2.4819-0.91408 1.0056-0.9251 1.0056-1.9934z"/>
   <path fill-opacity=".47059" d="m89.77 52.973q0 1.2995-0.70604 2.522-0.69535 1.2114-2.086 1.9383-1.38 0.71585-2.8884 0.71585-1.4977 0-2.867-0.70484-1.3693-0.71585-2.086-1.9383-0.71674-1.2224-0.71674-2.555 0-1.3546 0.72744-2.6541 0.72744-1.3106 2.086-2.0594 1.3693-0.74889 2.8563-0.74889 1.4977 0 2.8777 0.77091 1.3907 0.7599 2.0967 2.0594 0.70604 1.2885 0.70604 2.6541zm-2.193 0.01102q0-1.0903-0.75953-2.0044-1.0377-1.2335-2.7279-1.2335-1.487 0-2.4819 0.98016-0.99488 0.98016-0.99488 2.2687 0 1.0572 1.0056 1.9823 1.0056 0.91408 2.4712 0.91408 1.4763 0 2.4819-0.91408 1.0056-0.9251 1.0056-1.9934z"/>
   <path fill="#fff" d="m99.128 48.489v-0.67081h2.5818q0.79607 0 1.1296 0.31891 0.34425 0.30791 0.34425 0.81377 0 0.49486-0.34425 0.81377-0.33348 0.30791-1.1296 0.30791h-0.37652v8.2037q0 1.1877-0.49485 2.0674-0.48409 0.89075-1.4953 1.5286-1.0112 0.63782-2.2806 0.63782h-2.4958q-0.79606 0-1.1403-0.31891-0.33349-0.30791-0.33349-0.80278 0-0.50586 0.33349-0.82477 0.34424-0.30791 1.1403-0.30791h2.4312q1.0112 0 1.5706-0.56084t0.5594-1.4186v-1.0997q-0.73152 0.48386-1.4953 0.7258-0.75303 0.24193-1.5491 0.24193-2.2483 0-3.7652-1.5286-1.5168-1.5396-1.5168-3.7939 0-2.2654 1.5168-3.7939 1.5168-1.5396 3.7652-1.5396 0.8391 0 1.5921 0.25293 0.76379 0.24193 1.4523 0.74779zm-0.01076 4.3218q0-1.2427-0.90364-2.1554-0.89288-0.91274-2.1515-0.91274t-2.1623 0.91274q-0.89288 0.91274-0.89288 2.1554 0 1.2536 0.89288 2.1664 0.90364 0.90174 2.1623 0.90174 1.2586 0 2.1515-0.90174 0.90364-0.91274 0.90364-2.1664z"/>
  </g>
 </g>
</svg>
